<?xml version="1.0" encoding="UTF-8"?>
<svg xmlns="http://www.w3.org/2000/svg" xmlns:xlink="http://www.w3.org/1999/xlink" width="80px" height="79px" viewBox="0 0 80 79" version="1.1">
<g id="surface1">
<path style=" stroke:none;fill-rule:nonzero;fill:rgb(82.745098%,89.019608%,99.607843%);fill-opacity:1;" d="M 33.332031 76.316406 C 31.257812 75.871094 29.035156 75.273438 26.964844 74.527344 C 25.480469 73.933594 23.851562 73.335938 22.519531 72.441406 C 22.371094 70.207031 24.296875 67.523438 27.257812 67.671875 C 35.554688 67.671875 43.851562 67.671875 52.148438 67.671875 C 54.371094 67.523438 56.445312 69.164062 56.890625 71.546875 C 56.890625 71.84375 56.890625 72.144531 56.890625 72.441406 C 53.628906 74.230469 50.222656 75.421875 46.519531 76.019531 C 46.371094 76.019531 46.222656 76.167969 46.074219 76.167969 C 45.777344 76.019531 45.628906 76.019531 45.332031 76.167969 C 45.332031 76.167969 45.183594 76.316406 45.183594 76.316406 C 44.890625 76.167969 44.742188 76.167969 44.445312 76.316406 C 44.296875 76.316406 44 76.464844 43.851562 76.464844 C 43.554688 76.316406 43.257812 76.316406 42.964844 76.464844 C 42.816406 76.464844 42.667969 76.464844 42.667969 76.613281 C 42.519531 76.613281 42.519531 76.613281 42.371094 76.613281 C 41.628906 76.464844 40.890625 76.464844 40 76.613281 C 39.703125 76.613281 39.40625 76.613281 39.109375 76.613281 C 38.371094 76.464844 37.628906 76.464844 36.742188 76.613281 C 36.59375 76.613281 36.59375 76.613281 36.445312 76.613281 C 36.445312 76.464844 36.296875 76.464844 36.148438 76.464844 C 35.851562 76.316406 35.554688 76.316406 35.257812 76.464844 C 35.109375 76.464844 34.816406 76.316406 34.667969 76.316406 C 34.371094 76.167969 34.222656 76.167969 33.925781 76.316406 C 33.925781 76.316406 33.777344 76.167969 33.777344 76.167969 C 33.777344 76.167969 33.628906 76.167969 33.332031 76.316406 Z M 33.332031 76.316406 "/>
<path style=" stroke:none;fill-rule:nonzero;fill:rgb(0%,41.176471%,63.529412%);fill-opacity:1;" d="M 17.777344 8.945312 C 20.445312 7.003906 23.257812 5.515625 26.222656 4.324219 C 29.628906 2.980469 32.890625 2.085938 36.445312 1.789062 C 36.59375 1.789062 36.742188 1.789062 36.742188 1.640625 C 37.035156 1.640625 37.183594 1.640625 37.480469 1.640625 C 37.628906 1.789062 37.777344 1.640625 37.777344 1.789062 C 37.925781 1.789062 38.074219 1.789062 38.371094 1.640625 C 39.257812 1.640625 40.148438 1.640625 41.035156 1.640625 C 41.183594 1.789062 41.332031 1.640625 41.628906 1.789062 C 41.777344 1.789062 41.925781 1.789062 41.925781 1.640625 C 42.222656 1.640625 42.371094 1.640625 42.667969 1.640625 C 43.40625 1.9375 44.148438 1.9375 44.890625 1.9375 C 50.964844 2.832031 56.445312 5.066406 61.480469 8.644531 C 61.628906 8.644531 61.628906 8.792969 61.777344 8.792969 C 61.777344 9.09375 61.480469 9.09375 61.183594 9.09375 C 60.890625 9.09375 60.59375 9.09375 60.445312 9.09375 C 46.667969 9.09375 32.890625 9.09375 19.109375 9.09375 C 18.816406 9.09375 18.519531 9.09375 18.371094 9.09375 C 18.074219 9.242188 17.777344 9.242188 17.777344 8.945312 Z M 17.777344 8.945312 "/>
<path style=" stroke:none;fill-rule:nonzero;fill:rgb(0%,41.176471%,63.529412%);fill-opacity:1;" d="M 2.519531 36.070312 C 2.816406 35.476562 2.816406 34.730469 2.816406 33.984375 C 3.40625 30.257812 4.445312 26.679688 5.925781 23.253906 C 5.925781 23.105469 6.074219 22.953125 6.074219 22.953125 C 6.371094 22.953125 6.371094 23.253906 6.371094 23.550781 C 6.371094 23.847656 6.371094 24 6.371094 24.296875 C 6.371094 34.28125 6.371094 44.269531 6.371094 54.257812 C 6.371094 54.703125 6.667969 55.300781 6.074219 55.597656 C 4.890625 52.914062 3.851562 50.082031 3.257812 47.25 C 2.964844 45.761719 2.816406 44.417969 2.519531 42.929688 C 2.519531 42.777344 2.519531 42.628906 2.371094 42.480469 C 2.371094 42.183594 2.371094 41.886719 2.371094 41.585938 C 2.519531 41.4375 2.371094 41.289062 2.519531 41.289062 C 2.519531 41.140625 2.519531 40.992188 2.371094 40.691406 C 2.371094 39.796875 2.371094 38.902344 2.371094 38.007812 C 2.519531 37.859375 2.371094 37.710938 2.519531 37.414062 C 2.519531 37.265625 2.519531 37.113281 2.371094 37.113281 C 2.519531 36.667969 2.519531 36.371094 2.519531 36.070312 Z M 2.519531 36.070312 "/>
<path style=" stroke:none;fill-rule:nonzero;fill:rgb(0%,41.176471%,63.529412%);fill-opacity:1;" d="M 73.332031 22.953125 C 74.519531 25.636719 75.554688 28.46875 76.148438 31.300781 C 76.445312 32.792969 76.742188 34.28125 76.890625 35.773438 C 76.890625 35.921875 76.742188 36.070312 77.035156 36.222656 C 77.035156 36.519531 77.035156 36.667969 77.035156 36.964844 C 76.890625 37.113281 77.035156 37.265625 76.890625 37.265625 C 76.890625 37.414062 76.890625 37.5625 77.035156 37.859375 C 77.035156 38.753906 77.035156 39.648438 77.035156 40.542969 C 76.890625 40.691406 77.035156 40.839844 76.890625 41.140625 C 76.890625 41.289062 76.890625 41.4375 77.035156 41.4375 C 77.035156 41.734375 77.035156 42.035156 77.035156 42.332031 C 76.742188 42.929688 76.742188 43.671875 76.742188 44.417969 C 76.148438 48.144531 75.109375 51.722656 73.628906 55.152344 C 73.628906 55.300781 73.480469 55.449219 73.480469 55.449219 C 73.183594 55.449219 73.183594 55.152344 73.183594 54.851562 C 73.183594 54.554688 73.183594 54.40625 73.183594 54.109375 C 73.183594 44.121094 73.183594 34.132812 73.183594 24.148438 C 73.035156 23.847656 72.742188 23.253906 73.332031 22.953125 Z M 73.332031 22.953125 "/>
<path style=" stroke:none;fill-rule:nonzero;fill:rgb(27.058824%,56.862745%,73.333333%);fill-opacity:1;" d="M 2.519531 40.542969 C 2.667969 40.691406 2.667969 40.992188 2.667969 41.140625 C 2.667969 41.140625 2.519531 41.140625 2.519531 41.140625 C 2.519531 40.992188 2.519531 40.691406 2.519531 40.542969 Z M 2.519531 40.542969 "/>
<path style=" stroke:none;fill-rule:nonzero;fill:rgb(27.058824%,56.862745%,73.333333%);fill-opacity:1;" d="M 76.890625 41.140625 C 76.890625 40.992188 76.742188 40.691406 77.035156 40.542969 C 77.035156 40.691406 77.035156 40.992188 76.890625 41.140625 C 77.035156 41.140625 76.890625 41.140625 76.890625 41.140625 Z M 76.890625 41.140625 "/>
<path style=" stroke:none;fill-rule:nonzero;fill:rgb(27.058824%,56.862745%,73.333333%);fill-opacity:1;" d="M 77.035156 37.859375 C 76.890625 37.710938 76.890625 37.414062 76.890625 37.265625 C 76.890625 37.265625 77.035156 37.265625 77.035156 37.265625 C 77.035156 37.5625 77.035156 37.710938 77.035156 37.859375 Z M 77.035156 37.859375 "/>
<path style=" stroke:none;fill-rule:nonzero;fill:rgb(27.058824%,56.862745%,73.333333%);fill-opacity:1;" d="M 2.667969 37.265625 C 2.667969 37.414062 2.816406 37.710938 2.519531 37.859375 C 2.519531 37.710938 2.519531 37.5625 2.667969 37.265625 C 2.519531 37.265625 2.519531 37.265625 2.667969 37.265625 Z M 2.667969 37.265625 "/>
<path style=" stroke:none;fill-rule:nonzero;fill:rgb(37.647059%,63.137255%,77.254902%);fill-opacity:1;" d="M 2.519531 41.140625 C 2.667969 41.289062 2.667969 41.4375 2.519531 41.4375 C 2.519531 41.289062 2.519531 41.140625 2.519531 41.140625 Z M 2.519531 41.140625 "/>
<path style=" stroke:none;fill-rule:nonzero;fill:rgb(37.647059%,63.137255%,77.254902%);fill-opacity:1;" d="M 76.890625 41.140625 C 76.890625 41.140625 77.035156 41.140625 76.890625 41.140625 C 77.035156 41.289062 77.035156 41.289062 77.035156 41.4375 C 76.890625 41.289062 76.890625 41.289062 76.890625 41.140625 Z M 76.890625 41.140625 "/>
<path style=" stroke:none;fill-rule:nonzero;fill:rgb(37.647059%,63.137255%,77.254902%);fill-opacity:1;" d="M 77.035156 37.265625 C 77.035156 37.265625 76.890625 37.265625 77.035156 37.265625 C 76.890625 37.113281 76.890625 36.964844 77.035156 36.964844 C 77.035156 37.113281 77.035156 37.265625 77.035156 37.265625 Z M 77.035156 37.265625 "/>
<path style=" stroke:none;fill-rule:nonzero;fill:rgb(37.647059%,63.137255%,77.254902%);fill-opacity:1;" d="M 2.667969 37.265625 C 2.519531 37.265625 2.519531 37.265625 2.667969 37.265625 C 2.519531 37.113281 2.519531 37.113281 2.519531 36.964844 C 2.667969 37.113281 2.667969 37.113281 2.667969 37.265625 Z M 2.667969 37.265625 "/>
<path style=" stroke:none;fill-rule:nonzero;fill:rgb(82.745098%,89.019608%,99.607843%);fill-opacity:1;" d="M 73.332031 22.953125 C 73.035156 23.105469 73.183594 23.402344 73.183594 23.550781 C 73.183594 33.984375 73.183594 44.417969 73.183594 54.851562 C 73.183594 55 73.035156 55.300781 73.332031 55.449219 C 71.851562 58.429688 70.074219 61.113281 68 63.648438 C 68 63.648438 67.851562 63.796875 67.851562 63.796875 C 67.703125 63.796875 67.554688 63.796875 67.257812 63.796875 C 48.890625 63.796875 30.519531 63.796875 12.148438 63.796875 C 12 63.796875 11.851562 63.796875 11.554688 63.796875 C 10.222656 62.304688 9.035156 60.667969 8 59.027344 C 7.40625 57.832031 6.816406 56.640625 6.074219 55.449219 C 6.371094 55.300781 6.222656 55 6.222656 54.851562 C 6.222656 44.417969 6.222656 33.984375 6.222656 23.550781 C 6.222656 23.402344 6.371094 23.105469 6.074219 22.953125 C 6.222656 22.65625 6.222656 22.359375 6.222656 21.910156 C 6.222656 19.824219 6.222656 17.738281 6.222656 15.652344 C 6.222656 14.011719 6.519531 12.371094 7.703125 11.179688 C 8.742188 9.988281 9.925781 9.390625 11.40625 9.09375 C 13.183594 8.792969 15.109375 8.945312 16.890625 8.945312 C 17.183594 8.945312 17.480469 8.945312 17.777344 8.792969 C 17.925781 9.09375 18.222656 8.945312 18.371094 8.945312 C 32.59375 8.945312 46.816406 8.945312 61.035156 8.945312 C 61.183594 8.945312 61.480469 9.09375 61.628906 8.792969 C 61.925781 8.945312 62.222656 8.945312 62.519531 8.945312 C 64.296875 8.945312 66.074219 8.945312 68 9.09375 C 70.519531 9.390625 72.890625 11.777344 73.035156 14.308594 C 73.183594 16.84375 73.035156 19.378906 73.183594 21.910156 C 73.183594 22.359375 73.183594 22.65625 73.332031 22.953125 Z M 73.332031 22.953125 "/>
<path style=" stroke:none;fill-rule:nonzero;fill:rgb(0%,41.176471%,63.529412%);fill-opacity:1;" d="M 67.554688 63.648438 C 67.703125 63.648438 67.851562 63.648438 67.851562 63.796875 C 64.742188 67.375 61.035156 70.207031 56.890625 72.441406 C 56.59375 72.292969 56.742188 72.144531 56.742188 71.996094 C 56.445312 69.609375 54.816406 67.96875 52.445312 67.96875 C 51.851562 67.820312 51.257812 67.96875 50.519531 67.96875 C 50.074219 67.96875 49.925781 67.820312 49.777344 67.375 C 49.777344 66.480469 49.777344 65.585938 49.777344 64.542969 C 49.777344 64.09375 50.074219 63.796875 50.519531 63.796875 C 52.890625 63.796875 55.40625 63.796875 57.777344 63.796875 C 60.742188 63.796875 63.703125 63.796875 66.667969 63.796875 C 67.109375 63.796875 67.257812 63.796875 67.554688 63.648438 Z M 67.554688 63.648438 "/>
<path style=" stroke:none;fill-rule:nonzero;fill:rgb(0%,41.176471%,63.529412%);fill-opacity:1;" d="M 11.554688 63.796875 C 11.554688 63.648438 11.703125 63.648438 11.851562 63.648438 C 12.148438 63.796875 12.445312 63.648438 12.59375 63.648438 C 17.925781 63.648438 23.257812 63.648438 28.59375 63.648438 C 29.480469 63.648438 29.480469 63.648438 29.480469 64.542969 C 29.480469 65.4375 29.480469 66.179688 29.480469 67.074219 C 29.480469 67.523438 29.332031 67.820312 28.742188 67.820312 C 28.148438 67.820312 27.554688 67.671875 26.964844 67.820312 C 24.59375 67.96875 22.964844 69.460938 22.667969 71.84375 C 22.667969 71.996094 22.667969 72.292969 22.519531 72.292969 C 18.371094 70.355469 14.667969 67.375 11.554688 63.796875 Z M 11.554688 63.796875 "/>
<path style=" stroke:none;fill-rule:nonzero;fill:rgb(52.941176%,65.490196%,89.803922%);fill-opacity:1;" d="M 27.109375 67.96875 C 27.703125 67.820312 28.296875 67.96875 29.035156 67.820312 C 29.480469 67.820312 29.480469 67.671875 29.480469 67.375 C 29.480469 66.480469 29.480469 65.585938 29.480469 64.542969 C 29.480469 63.945312 29.332031 63.796875 28.742188 63.796875 C 24.445312 63.796875 20.148438 63.796875 16 63.796875 C 14.964844 63.796875 13.925781 63.796875 12.742188 63.796875 C 12.445312 63.796875 12.148438 63.796875 12 63.648438 C 12.296875 63.648438 12.59375 63.648438 12.742188 63.648438 C 19.703125 63.648438 26.519531 63.648438 33.480469 63.648438 C 44.59375 63.648438 55.703125 63.648438 66.667969 63.648438 C 66.964844 63.648438 67.257812 63.648438 67.554688 63.648438 C 67.257812 63.796875 66.964844 63.796875 66.667969 63.796875 C 61.332031 63.796875 56.148438 63.796875 50.816406 63.796875 C 50.222656 63.796875 49.925781 63.945312 49.925781 64.542969 C 49.925781 65.4375 49.925781 66.332031 49.925781 67.222656 C 49.925781 67.671875 50.074219 67.671875 50.371094 67.671875 C 50.964844 67.671875 51.554688 67.523438 52.296875 67.820312 C 51.257812 67.820312 50.222656 67.820312 49.035156 67.820312 C 41.925781 67.820312 34.816406 67.820312 27.703125 67.820312 C 27.703125 67.96875 27.40625 67.96875 27.109375 67.96875 Z M 27.109375 67.96875 "/>
<path style=" stroke:none;fill-rule:nonzero;fill:rgb(14.117647%,26.666667%,46.666667%);fill-opacity:1;" d="M 39.703125 55.300781 C 30.667969 55.300781 21.777344 55.300781 12.742188 55.300781 C 10.371094 55.300781 9.332031 54.257812 9.332031 51.871094 C 9.332031 39.796875 9.332031 27.722656 9.332031 15.5 C 9.332031 13.265625 10.519531 12.074219 12.742188 12.074219 C 30.816406 12.074219 48.742188 12.074219 66.816406 12.074219 C 69.035156 12.074219 70.222656 13.265625 70.222656 15.5 C 70.222656 27.574219 70.222656 39.648438 70.222656 51.871094 C 70.222656 54.257812 69.035156 55.300781 66.816406 55.300781 C 57.777344 55.300781 48.742188 55.300781 39.703125 55.300781 Z M 39.703125 55.300781 "/>
<path style=" stroke:none;fill-rule:nonzero;fill:rgb(99.607843%,25.098039%,47.45098%);fill-opacity:1;" d="M 50.074219 39.203125 C 45.480469 39.203125 40.742188 39.203125 36.148438 39.203125 C 34.816406 39.203125 34.074219 38.605469 34.074219 37.5625 C 34.074219 36.519531 34.816406 35.921875 36.148438 35.921875 C 45.480469 35.921875 54.667969 35.921875 64 35.921875 C 65.480469 35.921875 66.371094 36.816406 65.925781 38.007812 C 65.777344 38.753906 65.183594 39.203125 64.148438 39.203125 C 61.628906 39.203125 59.109375 39.203125 56.59375 39.203125 C 54.371094 39.203125 52.296875 39.203125 50.074219 39.203125 Z M 50.074219 39.203125 "/>
<path style=" stroke:none;fill-rule:nonzero;fill:rgb(98.431373%,84.705882%,44.313725%);fill-opacity:1;" d="M 50.074219 48.445312 C 54.667969 48.445312 59.40625 48.445312 64 48.445312 C 64.445312 48.445312 64.890625 48.445312 65.332031 48.742188 C 65.925781 49.039062 66.074219 49.636719 66.074219 50.230469 C 65.925781 50.976562 65.628906 51.425781 64.890625 51.574219 C 64.59375 51.574219 64.148438 51.722656 63.851562 51.722656 C 54.667969 51.722656 45.480469 51.722656 36.296875 51.722656 C 36 51.722656 35.703125 51.722656 35.40625 51.722656 C 34.667969 51.574219 34.074219 50.976562 34.074219 50.230469 C 34.074219 49.488281 34.519531 48.890625 35.257812 48.742188 C 35.554688 48.742188 35.851562 48.742188 36.148438 48.742188 C 40.742188 48.445312 45.480469 48.445312 50.074219 48.445312 Z M 50.074219 48.445312 "/>
<path style=" stroke:none;fill-rule:nonzero;fill:rgb(13.333333%,54.117647%,81.568627%);fill-opacity:1;" d="M 50.074219 29.8125 C 54.667969 29.8125 59.40625 29.8125 64 29.8125 C 64.742188 29.8125 65.332031 29.960938 65.777344 30.554688 C 66.222656 31.449219 65.777344 32.496094 64.890625 32.792969 C 64.59375 32.941406 64.296875 32.941406 63.851562 32.941406 C 54.667969 32.941406 45.480469 32.941406 36.148438 32.941406 C 35.851562 32.941406 35.40625 32.941406 35.109375 32.792969 C 34.519531 32.644531 33.925781 31.898438 34.074219 31.300781 C 34.074219 30.707031 34.371094 30.109375 35.109375 29.8125 C 35.40625 29.664062 35.851562 29.664062 36.296875 29.664062 C 40.890625 29.8125 45.480469 29.8125 50.074219 29.8125 Z M 50.074219 29.8125 "/>
<path style=" stroke:none;fill-rule:nonzero;fill:rgb(99.607843%,99.607843%,99.607843%);fill-opacity:1;" d="M 50.074219 45.460938 C 45.480469 45.460938 40.890625 45.460938 36.296875 45.460938 C 34.964844 45.460938 34.222656 44.867188 34.222656 43.972656 C 34.222656 42.929688 34.964844 42.332031 36.296875 42.332031 C 45.628906 42.332031 54.816406 42.332031 64.148438 42.332031 C 64.445312 42.332031 64.59375 42.332031 64.890625 42.332031 C 65.628906 42.480469 66.222656 43.078125 66.222656 43.824219 C 66.222656 44.566406 65.628906 45.164062 64.890625 45.3125 C 64.59375 45.3125 64.296875 45.3125 64 45.3125 C 59.257812 45.460938 54.667969 45.460938 50.074219 45.460938 Z M 50.074219 45.460938 "/>
<path style=" stroke:none;fill-rule:nonzero;fill:rgb(0%,41.176471%,63.529412%);fill-opacity:1;" d="M 20.59375 51.722656 C 18.964844 51.722656 17.332031 51.722656 15.851562 51.722656 C 15.40625 51.722656 15.109375 51.722656 14.667969 51.574219 C 13.777344 51.277344 13.332031 50.679688 13.480469 49.785156 C 13.480469 49.1875 14.222656 48.59375 14.964844 48.59375 C 15.851562 48.59375 16.890625 48.59375 17.777344 48.59375 C 20.445312 48.59375 23.257812 48.59375 25.925781 48.59375 C 27.109375 48.59375 27.851562 49.335938 27.703125 50.53125 C 27.554688 51.277344 26.816406 51.871094 25.777344 51.871094 C 24.148438 51.722656 22.371094 51.722656 20.59375 51.722656 Z M 20.59375 51.722656 "/>
<path style=" stroke:none;fill-rule:nonzero;fill:rgb(0%,41.176471%,63.529412%);fill-opacity:1;" d="M 20.59375 39.203125 C 18.816406 39.203125 17.035156 39.203125 15.257812 39.203125 C 14.074219 39.203125 13.332031 38.308594 13.480469 37.265625 C 13.628906 36.519531 14.371094 36.070312 15.554688 36.070312 C 18.667969 36.070312 21.628906 36.070312 24.742188 36.070312 C 25.332031 36.070312 25.925781 36.070312 26.519531 36.222656 C 27.554688 36.519531 27.851562 36.964844 27.851562 37.859375 C 27.851562 38.605469 27.109375 39.203125 26.222656 39.203125 C 24.296875 39.203125 22.519531 39.203125 20.59375 39.203125 Z M 20.59375 39.203125 "/>
<path style=" stroke:none;fill-rule:nonzero;fill:rgb(99.607843%,99.607843%,99.607843%);fill-opacity:1;" d="M 20.59375 29.8125 C 22.371094 29.8125 24.148438 29.8125 25.925781 29.8125 C 26.667969 29.8125 27.257812 30.109375 27.554688 30.707031 C 28 31.601562 27.554688 32.644531 26.519531 32.941406 C 26.222656 33.089844 25.777344 33.089844 25.480469 33.089844 C 22.074219 33.089844 18.816406 33.089844 15.40625 33.089844 C 14.074219 33.089844 13.332031 32.496094 13.332031 31.449219 C 13.332031 30.40625 14.074219 29.8125 15.40625 29.8125 C 17.332031 29.8125 18.964844 29.8125 20.59375 29.8125 Z M 20.59375 29.8125 "/>
<path style=" stroke:none;fill-rule:nonzero;fill:rgb(98.431373%,84.705882%,44.313725%);fill-opacity:1;" d="M 20.59375 42.332031 C 22.519531 42.332031 24.296875 42.332031 26.222656 42.332031 C 26.964844 42.332031 27.40625 42.628906 27.703125 43.226562 C 28 43.824219 27.851562 44.417969 27.40625 44.867188 C 27.109375 45.3125 26.667969 45.460938 26.222656 45.460938 C 22.519531 45.460938 18.816406 45.460938 14.964844 45.460938 C 14.074219 45.460938 13.332031 44.71875 13.332031 43.972656 C 13.332031 43.078125 13.925781 42.480469 14.964844 42.480469 C 16.890625 42.183594 18.816406 42.332031 20.59375 42.332031 Z M 20.59375 42.332031 "/>
<path style=" stroke:none;fill-rule:nonzero;fill:rgb(99.607843%,99.607843%,99.607843%);fill-opacity:1;" d="M 36.742188 28.320312 C 36.148438 28.320312 35.703125 27.722656 35.851562 27.128906 C 35.851562 26.980469 36 26.832031 36 26.679688 C 37.925781 22.65625 39.851562 18.78125 41.777344 14.757812 C 41.925781 14.308594 42.222656 13.863281 42.816406 14.011719 C 43.554688 14.011719 43.851562 14.757812 43.554688 15.5 C 42.222656 18.484375 40.742188 21.316406 39.257812 24.296875 C 38.667969 25.488281 38.074219 26.53125 37.628906 27.722656 C 37.332031 28.171875 37.035156 28.320312 36.742188 28.320312 Z M 36.742188 28.320312 "/>
<path style=" stroke:none;fill-rule:nonzero;fill:rgb(99.607843%,99.607843%,99.607843%);fill-opacity:1;" d="M 48 22.65625 C 47.109375 22.058594 46.222656 21.464844 45.332031 20.867188 C 44.59375 20.421875 44.445312 19.824219 44.890625 19.226562 C 45.332031 18.632812 45.777344 18.484375 46.519531 18.929688 C 47.851562 19.675781 49.035156 20.570312 50.222656 21.464844 C 51.257812 22.210938 51.257812 23.105469 50.222656 23.699219 C 48.890625 24.59375 47.703125 25.339844 46.371094 26.234375 C 45.777344 26.679688 45.183594 26.53125 44.742188 25.9375 C 44.296875 25.339844 44.445312 24.890625 45.183594 24.445312 C 46.074219 23.847656 46.964844 23.253906 48 22.65625 Z M 48 22.65625 "/>
<path style=" stroke:none;fill-rule:nonzero;fill:rgb(99.607843%,99.607843%,99.607843%);fill-opacity:1;" d="M 31.40625 22.65625 C 32.445312 23.253906 33.183594 23.847656 34.074219 24.445312 C 34.816406 24.890625 34.964844 25.488281 34.519531 26.085938 C 34.074219 26.679688 33.628906 26.832031 32.890625 26.382812 C 31.554688 25.488281 30.371094 24.742188 29.035156 23.847656 C 28 23.105469 28 22.210938 29.035156 21.613281 C 30.371094 20.71875 31.554688 19.972656 32.890625 19.078125 C 33.480469 18.632812 34.074219 18.78125 34.519531 19.378906 C 34.964844 19.972656 34.816406 20.421875 34.074219 20.867188 C 33.332031 21.464844 32.445312 22.058594 31.40625 22.65625 Z M 31.40625 22.65625 "/>
</g>
</svg>
